<?xml version="1.0" standalone="no"?>
<!DOCTYPE svg PUBLIC "-//W3C//DTD SVG 20010904//EN"
 "http://www.w3.org/TR/2001/REC-SVG-20010904/DTD/svg10.dtd">
<svg version="1.0" xmlns="http://www.w3.org/2000/svg"
 width="512.000000pt" height="512.000000pt" viewBox="0 0 512.000000 512.000000"
 preserveAspectRatio="xMidYMid meet">
<metadata>
Created by potrace 1.14, written by Peter Selinger 2001-2017
</metadata>
<g transform="translate(0.000000,512.000000) scale(0.100000,-0.100000)"
fill="#000000" stroke="none">
<path d="M2448 4585 c-2 -1 -41 -6 -88 -10 -46 -3 -87 -8 -90 -10 -3 -1 -27
-6 -55 -9 -227 -30 -558 -162 -780 -311 -55 -37 -102 -71 -105 -74 -3 -3 -38
-32 -77 -64 -155 -126 -325 -327 -443 -525 -33 -56 -60 -104 -60 -106 0 -3
-16 -40 -36 -83 -45 -98 -101 -256 -120 -338 -34 -153 -39 -186 -50 -300 -14
-138 -8 -405 11 -495 3 -14 8 -41 11 -60 3 -19 7 -43 10 -52 18 -61 16 -67
-33 -92 -60 -30 -149 -84 -188 -113 l-30 -22 84 -1 c78 0 87 2 143 36 32 20
60 35 61 33 2 -2 15 -42 31 -89 53 -159 170 -382 282 -540 14 -19 65 -81 115
-138 l90 -103 -85 -97 -86 -97 0 -84 c0 -46 2 -82 4 -80 3 2 28 40 57 84 28
44 62 94 75 110 14 17 28 35 32 40 4 6 19 24 33 42 l26 31 34 -30 c40 -35 197
-152 254 -190 56 -36 205 -118 216 -118 5 0 24 -9 44 -20 60 -34 297 -109 421
-134 147 -30 245 -40 394 -40 225 1 358 18 575 78 6 2 24 6 40 11 17 4 74 25
128 46 274 109 491 251 698 459 456 456 662 1073 575 1720 -12 88 -47 238 -76
330 -24 75 -24 75 -77 196 l-40 92 55 68 c205 257 340 479 436 718 39 95 47
130 19 79 -28 -51 -135 -181 -226 -273 -129 -132 -391 -370 -408 -370 -4 0
-29 30 -55 68 -27 37 -62 83 -78 102 -63 74 -244 248 -301 290 -33 25 -62 47
-65 51 -39 44 -381 226 -505 267 -155 53 -205 65 -375 93 -102 17 -410 34
-422 24z"/>
</g>
</svg>
